<svg xmlns="http://www.w3.org/2000/svg" width="1200" height="630" viewBox="0 0 1200 630">
  <defs>
    <radialGradient id="glowTR" cx="88%" cy="18%" r="50%">
      <stop offset="0%" stop-color="#4DA8FF" stop-opacity="0.14"/>
      <stop offset="100%" stop-color="#4DA8FF" stop-opacity="0"/>
    </radialGradient>
    <radialGradient id="glowBL" cx="12%" cy="80%" r="40%">
      <stop offset="0%" stop-color="#22D3EE" stop-opacity="0.07"/>
      <stop offset="100%" stop-color="#22D3EE" stop-opacity="0"/>
    </radialGradient>
    <pattern id="grid" width="56" height="56" patternUnits="userSpaceOnUse">
      <path d="M56 0L0 0 0 56" fill="none" stroke="rgba(255,255,255,0.03)" stroke-width="1"/>
    </pattern>
    <linearGradient id="ml" x1="0" y1="0" x2="1" y2="1">
      <stop offset="0%" stop-color="#6CB6FF"/>
      <stop offset="100%" stop-color="#22D3EE"/>
    </linearGradient>
    <radialGradient id="mg" cx="0.5" cy="0.5" r="0.5">
      <stop offset="0%" stop-color="#4DA8FF" stop-opacity="0.45"/>
      <stop offset="100%" stop-color="#4DA8FF" stop-opacity="0"/>
    </radialGradient>
  </defs>

  <!-- Base -->
  <rect width="1200" height="630" fill="#0A0B0D"/>
  <rect width="1200" height="630" fill="url(#grid)"/>
  <rect width="1200" height="630" fill="url(#glowTR)"/>
  <rect width="1200" height="630" fill="url(#glowBL)"/>
  <rect x="0.5" y="0.5" width="1199" height="629" fill="none" stroke="rgba(255,255,255,0.07)" stroke-width="1"/>
  <rect x="0" y="0" width="240" height="2.5" fill="url(#ml)" opacity="0.9"/>

  <!-- Logo mark (scaled 3× from 56×56 viewBox) -->
  <g transform="translate(72, 46) scale(2.6)">
    <g transform="translate(2 2)">
      <circle cx="26" cy="26" r="24" fill="url(#mg)"/>
      <ellipse cx="26" cy="26" rx="20" ry="20" stroke="rgba(77,168,255,0.35)" stroke-width="0.75"/>
      <ellipse cx="26" cy="26" rx="20" ry="8" stroke="rgba(77,168,255,0.55)" stroke-width="0.9" transform="rotate(-22 26 26)"/>
      <path d="M11 18 L26 26 L41 14 M26 26 L34 40 M26 26 L16 36" stroke="url(#ml)" stroke-width="0.9" stroke-linecap="round" opacity="0.85"/>
      <g fill="url(#ml)">
        <path d="M41 8 L42.6 13.4 L48 15 L42.6 16.6 L41 22 L39.4 16.6 L34 15 L39.4 13.4 Z"/>
        <path d="M11 14 L11.9 17 L15 18 L11.9 19 L11 22 L10.1 19 L7 18 L10.1 17 Z"/>
        <circle cx="26" cy="26" r="2.4"/>
        <path d="M34 38 L34.7 40.3 L37 41 L34.7 41.7 L34 44 L33.3 41.7 L31 41 L33.3 40.3 Z"/>
        <circle cx="16" cy="36" r="1.2"/>
        <circle cx="44" cy="32" r="1.1" opacity="0.7"/>
      </g>
    </g>
  </g>

  <!-- Wordmark -->
  <text x="228" y="108"
        font-family="Inter, ui-sans-serif, system-ui, sans-serif"
        font-size="22" font-weight="600" letter-spacing="-0.5"
        fill="#F5F7FB">astrion</text>

  <!-- Eyebrow -->
  <circle cx="76" cy="188" r="4" fill="#6CB6FF"/>
  <text x="92" y="194"
        font-family="ui-monospace, 'SF Mono', Menlo, monospace"
        font-size="12.5" font-weight="400" letter-spacing="2.2"
        fill="#5A6068">STELLAR · HYBRID LENDING PROTOCOL</text>

  <!-- Headline -->
  <text x="72" y="296"
        font-family="Inter, ui-sans-serif, system-ui, sans-serif"
        font-size="76" font-weight="500" letter-spacing="-3"
        fill="#F5F7FB">The credit layer</text>

  <text x="72" y="386"
        font-family="Inter, ui-sans-serif, system-ui, sans-serif"
        font-size="76" font-weight="500" letter-spacing="-3"
        fill="#F5F7FB">
    <tspan font-style="italic" font-weight="400" fill="#6CB6FF">for</tspan>
    <tspan> Stellar.</tspan>
  </text>

  <!-- Subline -->
  <text x="72" y="442"
        font-family="Inter, ui-sans-serif, system-ui, sans-serif"
        font-size="20" font-weight="400"
        fill="#8A8F98">Supply, borrow, and earn across Core and Isolated markets — non-custodial.</text>

  <!-- Divider -->
  <line x1="72" y1="490" x2="1128" y2="490" stroke="rgba(255,255,255,0.07)" stroke-width="1"/>

  <!-- Stat 1 -->
  <text x="72"  y="524" font-family="ui-monospace, 'SF Mono', Menlo, monospace" font-size="11" font-weight="400" letter-spacing="1.8" fill="#5A6068">TOTAL VALUE LOCKED</text>
  <text x="72"  y="565" font-family="ui-monospace, 'SF Mono', Menlo, monospace" font-size="30" font-weight="400" letter-spacing="-0.5" fill="#F5F7FB">—</text>
  <line x1="280" y1="502" x2="280" y2="578" stroke="rgba(255,255,255,0.07)" stroke-width="1"/>

  <!-- Stat 2 -->
  <text x="304" y="524" font-family="ui-monospace, 'SF Mono', Menlo, monospace" font-size="11" font-weight="400" letter-spacing="1.8" fill="#5A6068">ACTIVE MARKETS</text>
  <text x="304" y="565" font-family="ui-monospace, 'SF Mono', Menlo, monospace" font-size="30" font-weight="400" letter-spacing="-0.5" fill="#F5F7FB">—</text>
  <line x1="460" y1="502" x2="460" y2="578" stroke="rgba(255,255,255,0.07)" stroke-width="1"/>

  <!-- Stat 3 -->
  <text x="484" y="524" font-family="ui-monospace, 'SF Mono', Menlo, monospace" font-size="11" font-weight="400" letter-spacing="1.8" fill="#5A6068">TOTAL BORROWED</text>
  <text x="484" y="565" font-family="ui-monospace, 'SF Mono', Menlo, monospace" font-size="30" font-weight="400" letter-spacing="-0.5" fill="#F5F7FB">—</text>
  <line x1="660" y1="502" x2="660" y2="578" stroke="rgba(255,255,255,0.07)" stroke-width="1"/>

  <!-- Stat 4 -->
  <text x="684" y="524" font-family="ui-monospace, 'SF Mono', Menlo, monospace" font-size="11" font-weight="400" letter-spacing="1.8" fill="#5A6068">BEST SUPPLY APY</text>
  <text x="684" y="565" font-family="ui-monospace, 'SF Mono', Menlo, monospace" font-size="30" font-weight="400" letter-spacing="-0.5" fill="#6CB6FF">—</text>

  <!-- Bottom-right tag -->
  <text x="1128" y="598"
        font-family="ui-monospace, 'SF Mono', Menlo, monospace"
        font-size="12" font-weight="400" letter-spacing="1.5"
        fill="rgba(90,96,104,0.55)" text-anchor="end">ASTRION · STELLAR MAINNET</text>
</svg>
