<svg xmlns="http://www.w3.org/2000/svg" width="512" height="512" viewBox="0 0 512 512">
  <defs>
    <radialGradient id="bg" cx="50%" cy="50%" r="60%">
      <stop offset="0%" stop-color="#111520"/>
      <stop offset="100%" stop-color="#0A0B0D"/>
    </radialGradient>
    <radialGradient id="glow" cx="50%" cy="50%" r="50%">
      <stop offset="0%" stop-color="#4DA8FF" stop-opacity="0.28"/>
      <stop offset="100%" stop-color="#4DA8FF" stop-opacity="0"/>
    </radialGradient>
    <linearGradient id="ml" x1="0" y1="0" x2="1" y2="1">
      <stop offset="0%" stop-color="#6CB6FF"/>
      <stop offset="100%" stop-color="#22D3EE"/>
    </linearGradient>
    <radialGradient id="mg" cx="0.5" cy="0.5" r="0.5">
      <stop offset="0%" stop-color="#4DA8FF" stop-opacity="0.45"/>
      <stop offset="100%" stop-color="#4DA8FF" stop-opacity="0"/>
    </radialGradient>
  </defs>

  <!-- Background -->
  <rect width="512" height="512" fill="url(#bg)"/>
  <rect width="512" height="512" fill="url(#glow)"/>

  <!-- Logo mark: scale 5.5 → 308px, centered at (256,256) -->
  <!-- translate(102,102) + scale(5.5): center = (102 + 28×5.5, 102 + 28×5.5) = (256,256) ✓ -->
  <g transform="translate(102, 102) scale(5.5)">
    <g transform="translate(2 2)">
      <circle cx="26" cy="26" r="24" fill="url(#mg)"/>
      <ellipse cx="26" cy="26" rx="20" ry="20" stroke="rgba(77,168,255,0.35)" stroke-width="0.65" fill="none"/>
      <ellipse cx="26" cy="26" rx="20" ry="8" stroke="url(#ml)" stroke-width="0.9" fill="none" transform="rotate(-22 26 26)"/>
      <path d="M11 18 L26 26 L41 14 M26 26 L34 40 M26 26 L16 36" stroke="url(#ml)" stroke-width="0.85" stroke-linecap="round" opacity="0.9"/>
      <g fill="url(#ml)">
        <path d="M41 7 L43.0 13.8 L49 15 L43.0 16.2 L41 23 L39.0 16.2 L33 15 L39.0 13.8 Z"/>
        <path d="M11 13 L12.0 16.8 L15 18 L12.0 19.2 L11 23 L10.0 19.2 L7 18 L10.0 16.8 Z"/>
        <circle cx="26" cy="26" r="2.8"/>
        <path d="M34 37 L34.8 40.2 L37 41 L34.8 41.8 L34 45 L33.2 41.8 L31 41 L33.2 40.2 Z"/>
        <circle cx="16" cy="36" r="1.5"/>
        <circle cx="44" cy="32" r="1.3" opacity="0.8"/>
      </g>
    </g>
  </g>
</svg>
